<svg width="124" height="126" viewBox="0 0 124 126" fill="none" xmlns="http://www.w3.org/2000/svg">
<g clip-path="url(#clip0_8_3563)">
<path d="M59.0186 121.911C60.6977 118.886 62.1723 115.806 63.5593 112.594C64.8894 109.801 66.6848 106.699 67.226 103.476C67.569 101.722 65.0263 100.166 63.9824 101.624C63.9824 101.624 63.8661 101.701 63.9541 101.833C63.4291 101.801 63.0203 101.69 62.4076 101.525C62.3196 101.393 62.0275 101.205 61.9395 101.073C61.6472 100.885 61.2386 100.775 60.8298 100.665C59.4515 91.2735 57.8406 82.0367 57.3959 72.7884C57.2392 70.0293 57.287 67.3253 57.6551 64.5992C65.8648 68.878 77.105 72.6697 83.4651 66.3432C91.7997 57.9411 78.7343 49.6363 71.0928 48.9881C61.9049 48.0317 56.9629 51.6979 54.9245 59.7332C49.6065 56.7777 44.6343 52.829 41.6114 47.7753C34.1291 35.7597 42.1149 27.5897 51.932 25.4556C53.0566 29.6711 55.3472 33.8748 58.333 36.8536C63.6317 42.3034 75.7023 42.2983 77.6839 34.6824C79.5493 27.1438 63.2015 21.9745 58.7976 21.6561C57.5434 21.5352 56.1731 21.4918 54.8906 21.5806C54.9189 21.3709 54.8308 21.2383 54.8592 21.0288C53.8745 7.94008 66.4254 11.4334 74.1698 16.0213C75.339 16.7713 76.0026 14.9942 74.9497 14.1669C67.6109 8.92766 56.6885 4.35209 52.5281 13.9886C51.5752 16.3397 51.207 19.0659 51.568 21.88C43.2347 23.2188 35.7901 28.1664 35.5371 37.8784C35.2333 49.5329 45.5859 57.5412 54.4116 62.7467C54.3835 62.9563 54.3835 62.9563 54.3549 63.1661C52.5643 74.8544 55.3564 87.8872 57.3283 99.9381C56.0742 99.8172 54.7035 99.7738 53.4495 99.6528C52.6037 99.6422 51.8775 100.316 51.7644 101.154C51.3828 107.898 52.4315 115.027 55.5768 121.526C56.1956 123.214 58.1789 123.423 59.0186 121.911ZM59.5206 57.0608C62.0049 51.2105 68.8007 51.8478 74.3454 53.1257C81.6408 54.7671 85.3171 62.8222 77.719 65.7718C73.8178 67.2192 68.8547 65.5548 64.7969 64.2431C62.6658 63.5597 60.3587 62.6119 58.0799 61.454C58.3944 59.9086 58.9135 58.4183 59.5206 57.0608ZM55.3707 25.0791C59.743 24.8453 63.8293 25.9475 67.89 28.0204C69.6722 28.9357 71.426 30.0607 72.9188 31.55C77.0737 35.2785 69.2966 37.2021 67.0523 37.3575C60.7844 37.5146 56.9098 30.9275 55.3707 25.0791ZM55.4478 103.669C55.5641 103.592 55.6521 103.724 55.7684 103.647C56.0324 104.044 56.5292 104.286 57.1703 104.242C58.2485 104.098 59.4147 104.087 60.581 104.075C61.106 104.108 62.3318 104.439 62.1559 104.174C62.2438 104.306 62.4482 104.361 62.5645 104.284C61.8131 105.929 61.2373 107.838 60.486 109.483C59.5615 111.624 58.5206 113.843 57.4796 116.062C56.0937 112.211 55.406 107.896 55.4478 103.669Z" fill="#4D2323"/>
</g>
<defs>
<clipPath id="clip0_8_3563">
<rect width="83.8295" height="95.4198" fill="white" transform="translate(123.316 79.4705) rotate(146.393)"/>
</clipPath>
</defs>
</svg>
