<svg width="32" height="32" viewBox="0 0 32 32" fill="none" xmlns="http://www.w3.org/2000/svg">
    <g opacity="0.7">
        <path fill-rule="evenodd" clip-rule="evenodd" d="M28.481 7.08843C28.68 7.18169 28.8555 7.31766 28.9948 7.48649C29.1347 7.65502 29.235 7.85223 29.2886 8.06386C29.3422 8.27549 29.3477 8.49627 29.3047 8.71026L27.5197 17.5524C27.4514 17.8863 27.2688 18.1866 27.0027 18.4024C26.7366 18.6183 26.4034 18.7364 26.0595 18.7368H11.082L11.4316 20.7018H26.4661C26.7291 20.7018 26.9813 20.8053 27.1673 20.9895C27.3533 21.1738 27.4578 21.4236 27.4578 21.6842C27.4578 21.9448 27.3533 22.1947 27.1673 22.3789C26.9813 22.5632 26.7291 22.6667 26.4661 22.6667H10.5998C10.3667 22.6667 10.1409 22.5854 9.96231 22.4369C9.78368 22.2885 9.66356 22.0824 9.62305 21.8549L6.79315 5.96491H3.65832C3.39532 5.96491 3.14309 5.8614 2.95712 5.67716C2.77115 5.49291 2.66667 5.24302 2.66667 4.98246C2.66667 4.72189 2.77115 4.472 2.95712 4.28775C3.14309 4.10351 3.39532 4 3.65832 4H7.62489C7.85805 3.99995 8.08376 4.0813 8.26239 4.22975C8.44103 4.37821 8.56115 4.58427 8.60166 4.81175L8.98158 6.94737H27.8445C28.0646 6.94699 28.282 6.99518 28.481 7.08843ZM11.6667 28C12.7712 28 13.6667 27.1046 13.6667 26C13.6667 24.8954 12.7712 24 11.6667 24C10.5621 24 9.66667 24.8954 9.66667 26C9.66667 27.1046 10.5621 28 11.6667 28ZM25.6667 28C26.7712 28 27.6667 27.1046 27.6667 26C27.6667 24.8954 26.7712 24 25.6667 24C24.5621 24 23.6667 24.8954 23.6667 26C23.6667 27.1046 24.5621 28 25.6667 28Z" fill="#353535"/>
    </g>
</svg>
