<svg width="27" height="27" viewBox="0 0 27 27" fill="none" xmlns="http://www.w3.org/2000/svg">
<path d="M1.48148 0H25.1852C25.5781 0 25.9549 0.156084 26.2328 0.433916C26.5106 0.711747 26.6667 1.08857 26.6667 1.48148V25.1852C26.6667 25.5781 26.5106 25.9549 26.2328 26.2328C25.9549 26.5106 25.5781 26.6667 25.1852 26.6667H1.48148C1.08857 26.6667 0.711747 26.5106 0.433916 26.2328C0.156084 25.9549 0 25.5781 0 25.1852V1.48148C0 1.08857 0.156084 0.711747 0.433916 0.433916C0.711747 0.156084 1.08857 0 1.48148 0ZM11.8563 19.2593L22.3304 8.7837L20.2356 6.68889L11.8563 15.0696L7.66518 10.8785L5.57037 12.9733L11.8563 19.2593Z" fill="#F45757"/>
</svg>
