<svg width="128" height="100" viewBox="0 0 128 100" fill="none" xmlns="http://www.w3.org/2000/svg">
    <path d="M124.122 0.000244141H3.87872C2.20139 0.000244141 0.842285 1.35935 0.842285 3.03668V96.9638C0.842285 98.6411 2.20139 100 3.87872 100H124.122C125.799 100 127.158 98.6411 127.158 96.9638V3.03668C127.158 1.35935 125.799 0.000244141 124.122 0.000244141ZM121.085 6.07312V20.0407H6.91516V6.07312H121.085ZM6.91516 93.9274V26.1136H121.085V93.9274H6.91516Z" fill="#FBC400"/>
    <path d="M64.0003 37.1201C40.2473 37.1201 22.4679 55.4602 21.723 56.2412C20.6028 57.4144 20.6028 59.261 21.723 60.4343C22.4679 61.2149 40.2473 79.5549 64.0003 79.5549C87.7533 79.5549 105.533 61.2149 106.278 60.4339C107.398 59.2606 107.398 57.414 106.278 56.2408C105.533 55.4598 87.7533 37.1201 64.0003 37.1201ZM63.9999 70.5351C57.3193 70.5351 51.8841 65.063 51.8841 58.3375C51.8841 51.612 57.3193 46.1404 63.9999 46.1404C70.6809 46.1404 76.1165 51.612 76.1165 58.3375C76.1165 65.063 70.6809 70.5351 63.9999 70.5351ZM51.455 45.1278C47.9821 48.457 45.8117 53.146 45.8117 58.3375C45.8117 63.529 47.9817 68.2177 51.4546 71.5472C40.6643 68.2841 32.1999 61.7104 28.3619 58.3375C32.2011 54.9638 40.6651 48.3902 51.455 45.1278ZM76.5461 71.5472C80.0189 68.2177 82.1894 63.529 82.1894 58.3375C82.1894 53.146 80.0189 48.457 76.5452 45.1278C87.3359 48.3906 95.8011 54.9647 99.6392 58.3375C95.7995 61.7112 87.3355 68.2845 76.5461 71.5472Z" fill="#FBC400"/>
    <path d="M64.0002 51.897C60.4795 51.897 57.6147 54.7864 57.6147 58.3375C57.6147 61.8881 60.4791 64.7771 64.0002 64.7771C67.5208 64.7771 70.3852 61.8881 70.3852 58.3375C70.3852 54.786 67.5208 51.897 64.0002 51.897Z" fill="#FBC400"/>
    <path d="M17.2381 15.9922C18.0393 15.9922 18.8211 15.6683 19.3875 15.1015C19.9506 14.5347 20.2745 13.7533 20.2745 12.9557C20.2745 12.1578 19.9506 11.3728 19.3875 10.81C18.8211 10.2432 18.0393 9.91931 17.2381 9.91931C16.4401 9.91931 15.6551 10.2432 15.0923 10.81C14.5255 11.3728 14.2017 12.1537 14.2017 12.9557C14.2017 13.757 14.5255 14.5387 15.0923 15.1015C15.6591 15.6683 16.4401 15.9922 17.2381 15.9922Z" fill="#FBC400"/>
    <path d="M30.598 15.9922C31.3992 15.9922 32.181 15.6683 32.7478 15.1015C33.3109 14.5347 33.6344 13.7533 33.6344 12.9557C33.6344 12.1578 33.3105 11.3728 32.7478 10.81C32.1814 10.2432 31.3996 9.91931 30.598 9.91931C29.8 9.91931 29.015 10.2432 28.4522 10.81C27.8854 11.3728 27.5615 12.1537 27.5615 12.9557C27.5615 13.757 27.8854 14.5387 28.4522 15.1015C29.019 15.6683 29.8 15.9922 30.598 15.9922Z" fill="#FBC400"/>
    <path d="M43.9583 15.9922C44.7595 15.9922 45.5413 15.6683 46.1081 15.1015C46.6713 14.5347 46.9947 13.7533 46.9947 12.9557C46.9947 12.1578 46.6709 11.3728 46.1081 10.81C45.5417 10.2432 44.7599 9.91931 43.9583 9.91931C43.1603 9.91931 42.3753 10.2432 41.8126 10.81C41.2458 11.3728 40.9219 12.1537 40.9219 12.9557C40.9219 13.757 41.2458 14.5387 41.8126 15.1015C42.3794 15.6683 43.1603 15.9922 43.9583 15.9922Z" fill="#FBC400"/>
</svg>
