<svg width="82" height="150" viewBox="0 0 82 150" fill="none" xmlns="http://www.w3.org/2000/svg">
    <path d="M59.6895 85.5391L60.4735 82.8761C61.657 78.8506 65.3105 72.7166 68.29 69.7506C68.829 69.2146 81.5 56.4451 81.5 41.4261C81.5 19.0501 63.3315 0.845581 41 0.845581C18.6685 0.845581 0.5 19.0501 0.5 41.4261C0.5 56.4451 13.1725 69.2146 13.7105 69.7496C16.689 72.7136 20.343 78.8481 21.5295 82.8771L22.3125 85.5391C14.902 86.6586 9.1365 94.6401 9.1365 104.295C9.1365 113.303 19.5715 133.968 20.761 136.294C21.4025 137.548 22.692 138.337 24.1005 138.337C25.5085 138.337 26.7985 137.547 27.4395 136.293C27.517 136.141 28.612 133.994 30.1025 130.824C33.706 139.356 37.4545 146.709 37.661 147.113C38.302 148.366 39.5915 149.155 41 149.155C42.4085 149.155 43.6975 148.366 44.339 147.113C44.5455 146.708 48.2945 139.355 51.8975 130.823C53.389 133.995 54.485 136.143 54.5625 136.294C55.2035 137.548 56.493 138.337 57.9015 138.337C59.3095 138.337 60.599 137.548 61.2405 136.294C62.43 133.968 72.8635 113.303 72.8635 104.295C72.863 94.6406 67.099 86.6591 59.6895 85.5391ZM18.999 64.4316C18.889 64.3221 8 53.3596 8 41.4256C8 23.1846 22.8035 8.34508 41 8.34508C59.1965 8.34508 74 23.1851 74 41.4256C74 53.2936 63.108 64.3256 63.0005 64.4336C59.0985 68.3176 54.828 75.4891 53.279 80.7586L50.445 90.3806H48.751L52.33 62.5786H57.0655C59.1365 62.5786 60.8155 60.9001 60.8155 58.8286C60.8155 56.7571 59.1365 55.0786 57.0655 55.0786H24.9355C22.864 55.0786 21.1855 56.7571 21.1855 58.8286C21.1855 60.9001 22.864 62.5786 24.9355 62.5786H29.6705L33.249 90.3806H31.555L28.724 80.7586C27.17 75.4831 22.8985 68.3126 18.999 64.4316ZM40.811 90.3806L37.2325 62.5786H44.768L41.189 90.3806H40.811ZM57.907 125.958C57.0325 124.06 56.073 121.909 55.1415 119.685C54.5445 118.259 53.131 117.344 51.5865 117.385C50.0405 117.424 48.6775 118.409 48.154 119.864C46.029 125.772 43.1895 132.151 41 136.822C38.8105 132.151 35.971 125.773 33.846 119.865C33.3225 118.41 31.96 117.425 30.414 117.386C28.864 117.344 27.4565 118.259 26.859 119.685C25.927 121.909 24.9675 124.061 24.093 125.958C20.4355 117.999 16.637 108.411 16.637 104.295C16.637 98.1291 20.441 92.9191 24.479 92.9006L25.1525 95.1896C25.6225 96.7851 27.0865 97.8811 28.75 97.8811H53.25C54.913 97.8811 56.3775 96.7861 56.847 95.1906L57.5215 92.9006C61.5585 92.9186 65.364 98.1286 65.364 104.295C65.363 108.407 61.5645 117.997 57.907 125.958Z" fill="#FBC400"/>
</svg>
