<svg width="200" height="122" viewBox="0 0 200 122" fill="none" xmlns="http://www.w3.org/2000/svg">
    <path d="M199.738 109.284L182.426 34.6751C181.721 31.6413 180.097 29.0584 177.921 27.1458C178.49 26.8345 179.045 26.4905 179.575 26.0984C182.621 23.8455 184.607 20.5409 185.168 16.7929C186.327 9.05674 180.979 1.81928 173.247 0.659872C169.504 0.0982016 165.763 1.02962 162.717 3.28252C159.671 5.53542 157.685 8.83995 157.124 12.5876C156.562 16.3352 157.493 20.0771 159.744 23.1242C160.193 23.731 160.685 24.294 161.212 24.8138L139.292 29.6719V21.5179C139.292 19.801 137.901 18.4091 136.185 18.4091H59.7008C57.9849 18.4091 56.5937 19.801 56.5937 21.5179V28.76L48.9706 27.0704C51.0035 24.1609 51.9265 20.5231 51.3734 16.8385C50.2184 9.10482 42.9856 3.75258 35.2498 4.9095C27.5169 6.07015 22.1694 13.3093 23.3298 21.0495C23.5577 22.5596 24.0175 23.9947 24.6853 25.3228C21.2166 27.2196 18.537 30.5279 17.5747 34.6751L0.261646 109.284C-0.339883 111.875 0.103807 114.546 1.50986 116.804C2.91633 119.062 5.11697 120.637 7.70702 121.239C8.46142 121.414 9.21582 121.498 9.95903 121.498C14.4833 121.497 18.5888 118.384 19.6552 113.789L27.0276 82.0175L30.4462 87.9849L24.757 102.764C23.8042 105.239 23.8717 107.937 24.9467 110.361C26.0218 112.784 27.9759 114.644 30.4491 115.597C32.9228 116.55 35.6189 116.483 38.0408 115.407C40.463 114.332 42.3215 112.376 43.2743 109.902L50.7044 90.6005C51.7119 87.9832 51.4961 85.0829 50.1128 82.6438L40.1105 65.007L44.2731 46.7061L56.5937 49.4129V79.9739C56.5937 81.6909 57.9849 83.0828 59.7008 83.0828H136.185C137.901 83.0828 139.292 81.6909 139.292 79.9739V61.06L158.054 56.9368L159.89 65.007L149.887 82.6434C148.503 85.0824 148.288 87.9828 149.296 90.6001L156.726 109.901C158.692 115.01 164.447 117.565 169.551 115.597C174.656 113.629 177.21 107.873 175.244 102.764L169.554 87.9849L172.973 82.0175L180.346 113.789C180.947 116.381 182.521 118.582 184.778 119.99C186.377 120.987 188.184 121.5 190.023 121.5C190.778 121.5 191.539 121.414 192.293 121.239C194.883 120.637 197.084 119.062 198.49 116.804C199.897 114.546 200.34 111.875 199.738 109.284ZM163.269 13.5091C163.584 11.4042 164.7 9.54753 166.411 8.28242C167.797 7.25732 169.438 6.71928 171.129 6.71928C171.526 6.71928 171.927 6.74912 172.327 6.80882C176.67 7.46044 179.674 11.5256 179.023 15.8714C178.708 17.9763 177.592 19.8329 175.881 21.098C174.17 22.3636 172.069 22.8863 169.966 22.5712C167.862 22.2558 166.007 21.1391 164.742 19.4275C163.477 17.7164 162.954 15.6144 163.269 13.5091ZM29.4748 20.1248C28.8231 15.7777 31.8274 11.7113 36.1695 11.0593C40.5132 10.4089 44.5789 13.415 45.2281 17.7604C45.6854 20.805 44.3543 23.7916 41.8741 25.4981L34.8061 23.9317C33.4862 23.6249 32.1663 23.5163 30.8754 23.5785C30.1455 22.5634 29.6658 21.3903 29.4748 20.1248ZM42.5945 39.971C40.9262 39.605 39.277 40.6525 38.8987 42.3176L33.7841 64.8026C33.6122 65.5591 33.729 66.3525 34.1114 67.0269L44.709 85.7121C45.1701 86.5254 45.2421 87.4924 44.9066 88.365L37.4765 107.666C37.1207 108.591 36.4259 109.322 35.5207 109.723C34.6151 110.126 33.608 110.151 32.6838 109.795C31.7595 109.439 31.0291 108.743 30.6277 107.838C30.2259 106.932 30.2006 105.924 30.5569 104.999L36.7776 88.8392C37.1136 87.9658 37.0386 86.9876 36.5738 86.1759L28.4867 72.0587C27.8516 70.9499 26.6042 70.3422 25.3386 70.5292C24.0747 70.7153 23.0535 71.6567 22.7647 72.9019L13.6034 112.383C13.1369 114.393 11.1215 115.648 9.11391 115.182C8.14077 114.956 7.31388 114.364 6.78526 113.515C6.25664 112.667 6.0901 111.663 6.3163 110.69L23.6277 36.082C24.4993 32.3265 27.8512 29.7809 31.5681 29.7809C32.1821 29.7809 32.8064 29.8506 33.4311 29.9956L75.3787 39.2924C77.4459 39.7505 78.7579 41.8069 78.3039 43.8762C78.0835 44.8801 77.4857 45.7386 76.6203 46.2928C75.7549 46.847 74.7258 47.0315 73.7216 46.8101L42.5945 39.971ZM62.8079 76.8651V50.7779L72.3893 52.8828C75.0133 53.4594 77.7061 52.9785 79.9697 51.5294C82.2333 50.0798 83.7972 47.8352 84.3735 45.2092C85.5612 39.7973 82.1289 34.4198 76.7226 33.2218L62.8079 30.1378V24.6276H133.077V31.0498L123.278 33.2218C117.871 34.4202 114.439 39.7977 115.627 45.2088C116.203 47.8352 117.767 50.0798 120.031 51.5294C122.294 52.9789 124.987 53.459 127.611 52.8828L133.077 51.6819V76.8651H62.8079ZM139.292 54.6942V50.3169L155.727 46.7061L156.675 50.874L139.292 54.6942ZM193.216 113.516C192.688 114.364 191.861 114.956 190.888 115.182C189.914 115.409 188.912 115.241 188.064 114.713C187.216 114.184 186.625 113.357 186.399 112.383L177.237 72.9023C176.948 71.6571 175.927 70.7161 174.663 70.5296C174.511 70.5072 174.36 70.496 174.209 70.496C173.108 70.496 172.074 71.0834 171.514 72.0592L163.427 86.1764C162.962 86.988 162.887 87.9667 163.224 88.8396L169.445 104.999C170.179 106.908 169.225 109.06 167.317 109.795C165.409 110.53 163.259 109.575 162.525 107.666L155.095 88.365C154.758 87.492 154.83 86.525 155.291 85.7121L165.889 67.0269C166.272 66.3525 166.389 65.5587 166.216 64.8026L161.102 42.3176C160.723 40.6529 159.076 39.605 157.406 39.971L126.278 46.8097C125.273 47.0302 124.245 46.8466 123.38 46.2924C122.514 45.7386 121.916 44.8801 121.696 43.8757C121.242 41.8069 122.554 39.7505 124.622 39.2924L166.6 29.9886C170.971 28.9734 175.357 31.7064 176.373 36.082L193.685 110.69C193.911 111.664 193.745 112.667 193.216 113.516Z" fill="#FBC400"/>
</svg>
