<svg width="150" height="150" viewBox="0 0 150 150" fill="none" xmlns="http://www.w3.org/2000/svg">
    <path d="M112.858 32.6046C112.848 32.5924 112.84 32.5796 112.829 32.5674C112.682 32.4012 112.517 32.2621 112.341 32.1451C102.343 23.423 89.2784 18.1321 75 18.1321C60.7216 18.1321 47.6568 23.423 37.6591 32.1454C37.4831 32.2624 37.3179 32.4016 37.1712 32.5677C37.1607 32.5796 37.1521 32.5928 37.1416 32.605C25.4837 43.0262 18.1317 58.1697 18.1317 75.0004C18.1317 91.8311 25.4837 106.975 37.1416 117.396C37.1518 117.408 37.1603 117.421 37.1712 117.433C37.3179 117.6 37.4831 117.739 37.6595 117.856C47.6568 126.578 60.7216 131.869 75 131.869C89.2797 131.869 102.346 126.577 112.344 117.853C112.519 117.736 112.683 117.598 112.829 117.433C112.839 117.421 112.848 117.408 112.858 117.396C124.516 106.975 131.868 91.8311 131.868 75.0004C131.868 58.1697 124.516 43.0262 112.858 32.6046ZM104.642 72.5278C104.422 62.4228 102.854 52.7835 100.11 44.4309C103.93 42.5502 107.548 40.2349 110.89 37.5131C120.209 46.4383 126.216 58.7934 126.863 72.5278H104.642ZM96.4432 35.4309C94.3689 31.2823 92.0124 27.8284 89.4465 25.1241C95.9417 27.0085 101.917 30.1285 107.097 34.2141C104.374 36.3583 101.458 38.2127 98.3971 39.7588C97.7872 38.2618 97.1361 36.8165 96.4432 35.4309ZM93.88 41.7754C88.6702 43.8092 83.1337 45.0013 77.4725 45.2703V23.3481C82.8521 24.5195 87.9442 29.4902 92.0203 37.6427C92.6803 38.9627 93.2997 40.3433 93.88 41.7754ZM51.6026 39.7592C48.5413 38.213 45.626 36.3586 42.9026 34.2144C48.083 30.1288 54.058 27.0088 60.5532 25.1244C57.9873 27.8284 55.6308 31.2827 53.5565 35.4312C52.8639 36.8165 52.2128 38.2618 51.6026 39.7592ZM57.9797 37.6427C62.0558 29.4902 67.1479 24.5195 72.5275 23.3481V45.2703C66.8667 45.0013 61.3299 43.8092 56.1201 41.7754C56.7003 40.3433 57.3197 38.9627 57.9797 37.6427ZM72.5275 50.2203V72.5278H50.3037C50.517 63.1203 51.9458 54.1757 54.4378 46.4271C60.1823 48.655 66.2875 49.9493 72.5275 50.2203ZM72.5275 77.4729V99.7804C66.2875 100.051 60.1823 101.346 54.4374 103.574C51.9454 95.8247 50.5167 86.8804 50.3034 77.4729H72.5275ZM72.5275 104.73V126.653C67.1479 125.481 62.0558 120.511 57.9797 112.358C57.3197 111.038 56.7003 109.657 56.1201 108.225C61.3299 106.192 66.8667 104.999 72.5275 104.73ZM53.5569 114.57C55.6312 118.718 57.9877 122.172 60.5535 124.877C54.0583 122.992 48.0833 119.872 42.9029 115.787C45.6263 113.642 48.5416 111.788 51.6029 110.242C52.2128 111.739 52.8639 113.184 53.5569 114.57ZM98.3974 110.242C101.459 111.788 104.374 113.642 107.097 115.786C101.917 119.872 95.9421 122.992 89.4469 124.876C92.0127 122.172 94.3692 118.718 96.4435 114.569C97.1361 113.184 97.7872 111.739 98.3974 110.242ZM92.0203 112.358C87.9442 120.511 82.8521 125.481 77.4725 126.653V104.73C83.1333 104.999 88.6702 106.192 93.88 108.225C93.2997 109.657 92.6803 111.038 92.0203 112.358ZM77.4725 99.7804V77.4729H99.6964C99.4831 86.8804 98.0543 95.8247 95.5623 103.574C89.8178 101.346 83.7126 100.051 77.4725 99.7804ZM77.4725 72.5278V50.2203C83.7126 49.9496 89.8177 48.655 95.5626 46.4271C98.0546 54.176 99.4834 63.1203 99.6967 72.5278H77.4725ZM39.1104 37.5131C42.4526 40.2349 46.0707 42.5502 49.8906 44.4309C47.1464 52.7835 45.5785 62.4228 45.3583 72.5278H23.1371C23.7843 58.7934 29.7915 46.4383 39.1104 37.5131ZM23.1371 77.4729H45.358C45.5782 87.578 47.1461 97.2172 49.8903 105.57C46.0704 107.451 42.4522 109.766 39.11 112.488C29.7915 103.562 23.7843 91.2073 23.1371 77.4729ZM110.89 112.488C107.547 109.766 103.929 107.451 100.109 105.57C102.854 97.2172 104.422 87.578 104.642 77.4729H126.863C126.216 91.2073 120.208 103.562 110.89 112.488Z" fill="#FBC400"/>
    <path d="M128.75 126.121C128.749 126.102 128.749 126.083 128.747 126.064C128.739 125.972 128.725 125.881 128.707 125.79C128.703 125.772 128.698 125.755 128.694 125.737C128.677 125.664 128.658 125.591 128.634 125.519C128.626 125.495 128.618 125.471 128.609 125.448C128.585 125.381 128.558 125.314 128.528 125.249C128.518 125.228 128.509 125.206 128.498 125.186C128.46 125.109 128.419 125.035 128.372 124.962C128.368 124.954 128.364 124.947 128.359 124.939C128.307 124.86 128.25 124.782 128.188 124.707C128.185 124.704 128.182 124.699 128.179 124.696C128.167 124.681 128.153 124.669 128.141 124.655C128.106 124.615 128.072 124.575 128.033 124.536C128.021 124.524 128.007 124.513 127.994 124.5C127.97 124.478 127.945 124.457 127.921 124.435C127.872 124.391 127.821 124.35 127.77 124.311C127.747 124.294 127.725 124.277 127.701 124.26C127.638 124.216 127.573 124.175 127.506 124.137C127.493 124.13 127.48 124.121 127.467 124.114C127.298 124.022 127.121 123.951 126.939 123.902C126.92 123.897 126.9 123.893 126.881 123.888C126.809 123.87 126.737 123.855 126.665 123.844C126.64 123.84 126.615 123.836 126.589 123.833C126.514 123.824 126.439 123.818 126.364 123.816C126.346 123.815 126.327 123.813 126.308 123.813C126.214 123.813 126.121 123.817 126.028 123.827C126.023 123.827 126.019 123.827 126.014 123.827L113.925 125.164C112.567 125.314 111.589 126.536 111.739 127.893C111.889 129.251 113.114 130.23 114.468 130.079L118.908 129.588C91.4238 151.729 50.9738 150.047 25.4638 124.537C12.2321 111.305 4.94507 93.7128 4.94507 75.0004C4.94507 73.6348 3.83803 72.5278 2.47253 72.5278C1.10704 72.5278 0 73.6348 0 75.0004C0 95.0335 7.80134 113.868 21.967 128.033C36.1326 142.199 54.9671 150.001 75.0002 150.001C92.0891 150.001 108.302 144.32 121.493 133.859L120.497 137.264C120.113 138.575 120.865 139.948 122.175 140.332C122.407 140.4 122.641 140.432 122.871 140.432C123.941 140.432 124.927 139.732 125.243 138.653L128.653 126.997C128.655 126.991 128.657 126.986 128.658 126.98C128.684 126.891 128.704 126.8 128.72 126.709C128.724 126.682 128.727 126.654 128.731 126.627C128.741 126.561 128.747 126.496 128.751 126.43C128.752 126.4 128.754 126.37 128.755 126.34C128.757 126.267 128.754 126.194 128.75 126.121Z" fill="#FBC400"/>
    <path d="M128.033 21.967C113.867 7.80134 95.0328 0 74.9996 0C57.9108 0 41.6976 5.68057 28.5071 16.1417L29.5034 12.7365C29.8868 11.4257 29.1351 10.0523 27.8247 9.66893C26.5132 9.28585 25.1405 10.0372 24.7571 11.3476L21.347 23.0035C21.3453 23.0094 21.3437 23.015 21.342 23.0209C21.316 23.11 21.2965 23.2006 21.2807 23.2916C21.2761 23.319 21.2728 23.3463 21.2688 23.3737C21.2596 23.4393 21.253 23.5052 21.2494 23.5712C21.2477 23.6012 21.2458 23.6308 21.2451 23.6608C21.2434 23.734 21.2454 23.8069 21.2504 23.8797C21.2517 23.8985 21.2514 23.9173 21.253 23.9361C21.2612 24.0281 21.2748 24.1197 21.2932 24.2104C21.2969 24.2282 21.3021 24.2453 21.3061 24.2628C21.3226 24.3363 21.3427 24.4092 21.3661 24.4811C21.374 24.5051 21.3826 24.5285 21.3911 24.5523C21.4152 24.6195 21.4426 24.6858 21.4729 24.7511C21.4828 24.7722 21.4917 24.7933 21.5022 24.814C21.5401 24.8902 21.5817 24.965 21.6278 25.0375C21.6325 25.0451 21.6364 25.053 21.6414 25.0606C21.6934 25.1404 21.7505 25.2179 21.8128 25.2927C21.8158 25.2963 21.8181 25.3006 21.8214 25.3043C21.8378 25.324 21.857 25.3412 21.8741 25.3603C21.9051 25.3946 21.9341 25.4302 21.9671 25.4632C21.9743 25.4704 21.9826 25.4767 21.9902 25.4839C22.0159 25.509 22.0432 25.5321 22.0699 25.5561C22.1095 25.5914 22.1487 25.6263 22.1899 25.6586C22.216 25.6791 22.2427 25.6979 22.2694 25.717C22.3145 25.7496 22.36 25.7813 22.4065 25.8103C22.4319 25.8261 22.4576 25.841 22.4837 25.8558C22.5338 25.8845 22.5842 25.9118 22.6356 25.9369C22.6614 25.9494 22.6874 25.9613 22.7138 25.9732C22.7665 25.9966 22.8199 26.0177 22.874 26.0374C22.9014 26.0473 22.9284 26.0572 22.9561 26.0661C23.0102 26.0836 23.0649 26.0984 23.1199 26.1119C23.1486 26.1192 23.177 26.1268 23.206 26.133C23.263 26.1449 23.3207 26.1538 23.3784 26.1617C23.4058 26.1654 23.4325 26.1706 23.4602 26.1736C23.5403 26.1818 23.621 26.1865 23.7015 26.1868C23.7061 26.1868 23.7104 26.1874 23.7147 26.1874C23.7176 26.1874 23.7206 26.1871 23.7236 26.1871C23.806 26.1868 23.8884 26.1818 23.9708 26.1736C23.9761 26.1729 23.9814 26.1733 23.987 26.1726L36.076 24.8358C37.4333 24.6858 38.4117 23.4637 38.2617 22.1064C38.1114 20.7492 36.888 19.7727 35.5324 19.9207L31.092 20.4116C58.5761 -1.72814 99.0261 -0.046484 124.536 25.4638C137.768 38.6955 145.055 56.2881 145.055 75.0002C145.055 76.3657 146.162 77.4728 147.527 77.4728C148.893 77.4728 150 76.3657 150 75.0002C150 54.9668 142.199 36.133 128.033 21.967Z" fill="#FBC400"/>
</svg>
